<?xml version="1.0" standalone="no"?>
<!DOCTYPE svg PUBLIC "-//W3C//DTD SVG 20010904//EN"
 "http://www.w3.org/TR/2001/REC-SVG-20010904/DTD/svg10.dtd">
<svg version="1.0" xmlns="http://www.w3.org/2000/svg"
 width="512.000000pt" height="512.000000pt" viewBox="0 0 512.000000 512.000000"
 preserveAspectRatio="xMidYMid meet">

<g transform="translate(0.000000,512.000000) scale(0.100000,-0.100000)"
fill="#000000" stroke="none">
<path d="M2380 4954 c-537 -51 -997 -242 -1386 -578 -441 -379 -717 -883 -810
-1478 -25 -158 -25 -518 0 -676 74 -473 259 -879 561 -1230 382 -445 916 -731
1515 -814 123 -17 478 -16 600 1 697 96 1288 457 1678 1024 426 619 535 1399
296 2116 -302 906 -1105 1542 -2059 1631 -102 9 -313 11 -395 4z m250 -1137
c54 -28 80 -75 80 -142 0 -56 -9 -72 -83 -155 -86 -95 -146 -254 -147 -388 0
-87 28 -201 73 -292 32 -67 58 -102 122 -165 139 -140 302 -202 495 -192 143
8 243 48 350 139 91 78 110 88 161 88 51 0 98 -26 133 -73 19 -26 21 -42 20
-150 -2 -517 -353 -985 -858 -1146 -375 -120 -783 -58 -1126 172 -97 65 -273
241 -338 338 -269 402 -305 895 -97 1309 167 332 483 575 842 649 124 26 139
28 244 30 72 1 93 -3 129 -22z"/>
<path d="M2166 3449 c-216 -86 -411 -286 -501 -514 -119 -302 -66 -666 135
-934 354 -470 1039 -536 1440 -139 98 97 176 215 219 331 12 32 13 32 -67 7
-105 -33 -238 -44 -360 -31 -458 52 -807 398 -862 854 -14 118 -6 217 26 346
13 52 23 96 21 97 -1 1 -24 -7 -51 -17z"/>
</g>
</svg>
