<?xml version="1.0" standalone="no"?>
<!DOCTYPE svg PUBLIC "-//W3C//DTD SVG 20010904//EN"
 "http://www.w3.org/TR/2001/REC-SVG-20010904/DTD/svg10.dtd">
<svg version="1.0" xmlns="http://www.w3.org/2000/svg"
 width="78.000000pt" height="78.000000pt" viewBox="0 0 78.000000 78.000000"
 preserveAspectRatio="xMidYMid meet">

<g transform="translate(0.000000,78.000000) scale(0.100000,-0.100000)"
fill="#000000" stroke="none">
<path d="M370 605 c0 -28 4 -35 20 -35 16 0 20 7 20 35 0 28 -4 35 -20 35 -16
0 -20 -7 -20 -35z"/>
<path d="M212 549 c4 -30 33 -48 50 -31 17 17 -1 46 -31 50 -18 3 -22 -1 -19
-19z"/>
<path d="M520 555 c-14 -17 -7 -45 13 -45 19 0 37 21 37 42 0 22 -32 24 -50 3z"/>
<path d="M356 510 c-93 -28 -119 -147 -46 -212 25 -23 40 -28 81 -28 45 0 55
4 85 34 30 30 34 40 34 84 0 72 -34 110 -110 127 -8 2 -28 -1 -44 -5z m85 -69
c16 -16 29 -39 29 -51 0 -28 -52 -80 -80 -80 -28 0 -80 52 -80 80 0 12 13 35
29 51 16 16 39 29 51 29 12 0 35 -13 51 -29z"/>
<path d="M140 390 c0 -16 7 -20 35 -20 28 0 35 4 35 20 0 16 -7 20 -35 20 -28
0 -35 -4 -35 -20z"/>
<path d="M570 390 c0 -16 7 -20 35 -20 28 0 35 4 35 20 0 16 -7 20 -35 20 -28
0 -35 -4 -35 -20z"/>
<path d="M222 258 c-19 -19 -15 -48 7 -48 24 0 45 25 37 45 -7 18 -27 20 -44
3z"/>
<path d="M514 255 c-4 -8 -1 -22 6 -30 18 -21 50 -19 50 3 0 36 -45 57 -56 27z"/>
<path d="M370 175 c0 -28 4 -35 20 -35 16 0 20 7 20 35 0 28 -4 35 -20 35 -16
0 -20 -7 -20 -35z"/>
</g>
</svg>
